<?xml version="1.0" encoding="UTF-8"?>
<!DOCTYPE svg PUBLIC "-//W3C//DTD SVG 1.1//EN" "http://www.w3.org/Graphics/SVG/1.1/DTD/svg11.dtd">
<!-- Creator: CorelDRAW X6 -->
<svg xmlns="http://www.w3.org/2000/svg" xml:space="preserve" width="128mm" height="128mm" version="1.1" style="shape-rendering:geometricPrecision; text-rendering:geometricPrecision; image-rendering:optimizeQuality; fill-rule:evenodd; clip-rule:evenodd"
viewBox="0 0 12800 12800"
 xmlns:xlink="http://www.w3.org/1999/xlink">
 <defs>
  <style type="text/css">
   <![CDATA[
    .str0 {stroke:#373435;stroke-width:20}
    .fil0 {fill:#373435}
   ]]>
  </style>
 </defs>
 <g id="Camada_x0020_1">
  <metadata id="CorelCorpID_0Corel-Layer"/>
  <path class="fil0 str0" d="M6400 0l0 0c3520,0 6400,2880 6400,6400l0 0c0,3520 -2880,6400 -6400,6400l0 0c-3520,0 -6400,-2880 -6400,-6400l0 0c0,-3520 2880,-6400 6400,-6400zm-3892 10010l0 -7242 3839 0c-257,101 -485,250 -683,449 -31,31 -61,62 -89,94l-1772 0 0 2651 1661 0c158,181 377,352 659,510l-2319 0 0 3538 -1294 0zm3851 -1375c153,303 349,540 588,710 237,170 494,255 770,255 373,0 676,-122 909,-366 234,-244 349,-556 349,-939 0,-612 -521,-1139 -1563,-1582l-14 -6c-562,-238 -959,-508 -1193,-808 -235,-299 -353,-678 -353,-1137 0,-628 201,-1144 606,-1545 403,-403 925,-604 1567,-604 480,0 900,113 1260,336 360,224 628,542 802,952l-460 320c-114,-338 -287,-599 -517,-780 -230,-183 -503,-274 -820,-274 -339,0 -615,113 -831,338 -216,226 -324,519 -324,885 0,288 89,532 267,736 176,202 510,410 998,627 768,344 1276,671 1521,985 246,314 369,717 369,1207 0,651 -218,1187 -651,1608 -433,423 -982,634 -1647,634 -481,0 -895,-96 -1243,-287 -349,-190 -653,-486 -909,-887l517 -379z"/>
 </g>
</svg>
