<?xml version="1.0" encoding="UTF-8"?>
<!DOCTYPE svg PUBLIC "-//W3C//DTD SVG 1.1//EN" "http://www.w3.org/Graphics/SVG/1.1/DTD/svg11.dtd">
<!-- Creator: CorelDRAW X6 -->
<svg xmlns="http://www.w3.org/2000/svg" xml:space="preserve" width="128mm" height="128mm" version="1.1" style="shape-rendering:geometricPrecision; text-rendering:geometricPrecision; image-rendering:optimizeQuality; fill-rule:evenodd; clip-rule:evenodd"
viewBox="0 0 12800 12800"
 xmlns:xlink="http://www.w3.org/1999/xlink">
 <defs>
  <style type="text/css">
   <![CDATA[
    .fil0 {fill:#FEFEFE;fill-rule:nonzero}
   ]]>
  </style>
 </defs>
 <g id="Camada_x0020_1">
  <metadata id="CorelCorpID_0Corel-Layer"/>
  <g id="_419266936">
   <path class="fil0" d="M330 12099l0 -11434 5989 0c-401,159 -756,395 -1066,709 -48,49 -95,98 -140,149l-2764 0 0 4185 2590 0c246,286 588,555 1028,805l-3617 0 0 5586 -2019 0zm6907 -10597l0 21 -37 0c12,-7 25,-14 37,-21z"/>
   <path class="fil0" d="M6336 9928c239,479 545,852 918,1121 370,268 770,403 1201,403 581,0 1054,-193 1418,-578 364,-385 545,-878 545,-1483 0,-966 -812,-1798 -2439,-2498l-22 -9c-876,-376 -1496,-803 -1860,-1275 -367,-473 -551,-1071 -551,-1795 0,-992 314,-1806 945,-2440 628,-636 1443,-954 2444,-954 748,0 1404,178 1966,531 562,353 979,855 1251,1503l-717 505c-178,-534 -448,-946 -806,-1232 -359,-289 -784,-432 -1279,-432 -528,0 -959,178 -1296,534 -336,356 -506,820 -506,1398 0,455 139,840 417,1161 275,318 795,648 1557,989 1198,543 1991,1059 2372,1555 384,496 576,1132 576,1906 0,1027 -339,1874 -1015,2539 -676,668 -1532,1001 -2569,1001 -751,0 -1396,-152 -1938,-452 -545,-301 -1018,-768 -1418,-1401l806 -598z"/>
  </g>
 </g>
</svg>
